<?xml version="1.0" standalone="no"?>
<!DOCTYPE svg PUBLIC "-//W3C//DTD SVG 20010904//EN"
 "http://www.w3.org/TR/2001/REC-SVG-20010904/DTD/svg10.dtd">
<svg version="1.0" xmlns="http://www.w3.org/2000/svg"
 width="64.000000pt" height="64.000000pt" viewBox="0 0 64.000000 64.000000"
 preserveAspectRatio="xMidYMid meet">

<g transform="translate(0.000000,64.000000) scale(0.100000,-0.100000)"
fill="#000000" stroke="none">
<path d="M523 403 c-22 -4 -33 -23 -13 -23 5 0 17 -15 25 -32 41 -85 57 -101
53 -54 -1 14 -6 22 -11 19 -5 -3 -7 0 -5 8 3 8 11 13 17 11 7 -1 1 16 -11 38
-13 22 -25 39 -28 39 -3 -1 -15 -4 -27 -6z m50 -64 c-8 -8 -14 -6 -22 9 -13
25 -2 37 18 17 11 -11 12 -18 4 -26z"/>
<path d="M223 293 c9 -2 25 -2 35 0 9 3 1 5 -18 5 -19 0 -27 -2 -17 -5z"/>
<path d="M218 263 c7 -3 16 -2 19 1 4 3 -2 6 -13 5 -11 0 -14 -3 -6 -6z"/>
</g>
</svg>
